<svg xmlns="http://www.w3.org/2000/svg" xmlns:xlink="http://www.w3.org/1999/xlink" width="500" zoomAndPan="magnify" viewBox="0 0 375 374.999991" height="500" preserveAspectRatio="xMidYMid meet" version="1.0"><defs><g/><clipPath id="24e64bbb92"><path d="M 17.589844 133.183594 L 126.371094 133.183594 L 126.371094 241.964844 L 17.589844 241.964844 Z M 17.589844 133.183594 " clip-rule="nonzero"/></clipPath><clipPath id="869c461302"><path d="M 7.265625 122.859375 L 136.488281 122.859375 L 136.488281 252.082031 L 7.265625 252.082031 Z M 7.265625 122.859375 " clip-rule="nonzero"/></clipPath><clipPath id="64bbd4773d"><path d="M 45.773438 161.367188 L 98.339844 161.367188 L 98.339844 213.933594 L 45.773438 213.933594 Z M 45.773438 161.367188 " clip-rule="nonzero"/></clipPath><clipPath id="429c903062"><path d="M 69.253906 183.890625 L 72.289062 183.890625 L 72.289062 187.550781 L 69.253906 187.550781 Z M 69.253906 183.890625 " clip-rule="nonzero"/></clipPath><clipPath id="89f2df2019"><path d="M 72.265625 185.375 C 70.804688 187.636719 70.148438 187.417969 69.855469 187.199219 C 69.5625 186.90625 69.273438 186.324219 69.34375 185.882812 C 69.34375 185.445312 69.78125 184.933594 70.148438 184.714844 C 70.441406 184.570312 71.167969 184.570312 71.460938 184.714844 C 71.828125 184.933594 72.265625 185.445312 72.265625 185.882812 C 72.339844 186.324219 72.046875 186.90625 71.753906 187.199219 C 71.460938 187.417969 70.804688 187.636719 70.441406 187.492188 C 70 187.273438 69.492188 186.542969 69.34375 186.03125 C 69.199219 185.59375 69.273438 185.082031 69.492188 184.714844 C 69.710938 184.351562 70.222656 183.914062 70.660156 183.914062 C 71.167969 183.914062 72.265625 185.375 72.265625 185.375 " clip-rule="nonzero"/></clipPath><clipPath id="69c3a6703f"><path d="M 69.171875 172.742188 L 75.1875 172.742188 L 75.1875 205.800781 L 69.171875 205.800781 Z M 69.171875 172.742188 " clip-rule="nonzero"/></clipPath><clipPath id="e47c145a77"><path d="M 69.199219 186.394531 C 70.074219 180.992188 70.949219 180.480469 71.609375 180.699219 C 72.558594 180.992188 73.796875 184.132812 74.308594 185.59375 C 74.746094 186.761719 75.40625 188.21875 75.039062 188.878906 C 74.601562 189.535156 72.558594 189.828125 71.972656 189.460938 C 71.535156 189.242188 71.609375 188.730469 71.390625 187.929688 C 70.878906 185.664062 69.636719 176.175781 69.929688 174.203125 C 70.074219 173.546875 70.148438 173.253906 70.441406 173.035156 C 70.730469 172.816406 71.316406 172.671875 71.679688 172.816406 C 72.046875 172.960938 72.339844 173.328125 72.628906 173.984375 C 73.359375 176.101562 74.089844 186.25 73.433594 188.441406 C 73.140625 189.167969 72.777344 189.679688 72.339844 189.753906 C 71.898438 189.828125 71.316406 189.609375 71.023438 189.167969 C 70.292969 188.148438 69.929688 183.402344 70.585938 182.308594 C 70.949219 181.722656 71.828125 181.503906 72.265625 181.578125 C 72.703125 181.722656 72.996094 182.160156 73.214844 182.890625 C 73.796875 184.789062 73.507812 193.039062 72.703125 194.792969 C 72.410156 195.449219 71.972656 195.742188 71.535156 195.8125 C 71.097656 195.8125 70.441406 195.59375 70.222656 195.082031 C 69.417969 193.402344 71.535156 183.035156 72.703125 181.359375 C 73.066406 180.773438 73.507812 180.554688 73.871094 180.628906 C 74.308594 180.628906 74.820312 181.066406 75.039062 181.796875 C 75.695312 183.621094 73.507812 189.679688 73.214844 193.625 C 72.921875 197.347656 74.234375 203.113281 73.359375 204.792969 C 72.996094 205.449219 72.339844 205.816406 71.898438 205.742188 C 71.390625 205.667969 70.585938 204.648438 70.511719 204.136719 C 70.511719 203.769531 70.949219 203.1875 71.316406 203.042969 C 71.609375 202.820312 72.265625 202.820312 72.628906 203.042969 C 72.996094 203.1875 73.359375 203.769531 73.433594 204.136719 C 73.433594 204.574219 73.214844 205.160156 72.921875 205.449219 C 72.628906 205.667969 71.972656 205.816406 71.609375 205.742188 C 71.167969 205.597656 70.804688 205.304688 70.585938 204.792969 C 70 203.480469 70.222656 199.902344 70.441406 196.835938 C 70.730469 192.527344 71.460938 183.621094 72.628906 181.648438 C 72.996094 180.992188 73.507812 180.628906 73.871094 180.628906 C 74.308594 180.628906 74.820312 180.917969 75.039062 181.503906 C 75.695312 183.257812 73.726562 192.964844 72.703125 194.792969 C 72.339844 195.449219 71.972656 195.742188 71.535156 195.8125 C 71.097656 195.8125 70.511719 195.59375 70.222656 195.082031 C 69.273438 193.476562 69.710938 183.914062 70.585938 182.308594 C 70.878906 181.796875 71.242188 181.578125 71.609375 181.578125 C 72.046875 181.503906 72.703125 181.722656 73.066406 182.234375 C 73.726562 183.257812 73.796875 187.199219 73.433594 188.441406 C 73.214844 189.097656 72.777344 189.679688 72.339844 189.753906 C 71.898438 189.828125 71.242188 189.460938 70.878906 188.878906 C 69.855469 187.125 69.929688 179.386719 70 176.539062 C 70 175.007812 69.929688 173.546875 70.441406 173.035156 C 70.730469 172.742188 71.316406 172.742188 71.679688 172.816406 C 71.972656 172.960938 72.265625 173.109375 72.558594 173.691406 C 73.507812 175.589844 75.84375 187.273438 74.601562 188.511719 C 74.089844 188.949219 72.703125 188.511719 72.046875 188 C 71.097656 187.199219 70.441406 184.496094 70.148438 183.257812 C 69.929688 182.527344 69.5625 181.941406 69.78125 181.503906 C 70 181.066406 71.097656 180.554688 71.609375 180.699219 C 72.046875 180.847656 72.410156 181.359375 72.628906 182.015625 C 72.921875 183.109375 72.558594 186.175781 71.972656 187.050781 C 71.609375 187.5625 70.949219 187.929688 70.511719 187.855469 C 70 187.78125 69.199219 186.394531 69.199219 186.394531 " clip-rule="nonzero"/></clipPath><clipPath id="9656df2239"><path d="M 71.761719 186.039062 L 86.585938 186.039062 L 86.585938 200.625 L 71.761719 200.625 Z M 71.761719 186.039062 " clip-rule="nonzero"/></clipPath><clipPath id="41cac3b519"><path d="M 71.828125 199.246094 C 72.484375 194.71875 75.039062 191.726562 76.792969 190.046875 C 78.179688 188.730469 79.710938 187.855469 81.097656 187.199219 C 82.195312 186.613281 83.433594 186.175781 84.382812 186.101562 C 84.96875 186.101562 85.550781 186.101562 85.917969 186.394531 C 86.28125 186.6875 86.648438 187.34375 86.574219 187.855469 C 86.574219 188.292969 86.136719 188.949219 85.769531 189.167969 C 85.332031 189.460938 84.601562 189.460938 84.164062 189.242188 C 83.726562 189.097656 83.289062 188.441406 83.214844 188 C 83.144531 187.5625 83.363281 186.761719 83.726562 186.46875 C 84.164062 186.175781 85.332031 186.03125 85.769531 186.25 C 86.210938 186.46875 86.574219 187.199219 86.574219 187.636719 C 86.648438 188.148438 86.355469 188.730469 85.917969 189.097656 C 85.261719 189.679688 83.726562 189.460938 82.484375 190.117188 C 80.734375 190.996094 78.105469 192.894531 76.71875 194.644531 C 75.476562 196.324219 75.183594 199.464844 74.234375 200.265625 C 73.796875 200.558594 73.289062 200.632812 72.921875 200.558594 C 72.484375 200.414062 71.828125 199.246094 71.828125 199.246094 " clip-rule="nonzero"/></clipPath><clipPath id="0c1954e237"><path d="M 85.90625 186.125 L 88.703125 186.125 L 88.703125 188.5 L 85.90625 188.5 Z M 85.90625 186.125 " clip-rule="nonzero"/></clipPath><clipPath id="0aed6bbbf4"><path d="M 88.691406 186.980469 C 87.449219 188.949219 86.28125 188.585938 86.0625 188.148438 C 85.769531 187.78125 85.992188 186.542969 86.429688 186.25 C 86.792969 185.957031 88.328125 186.394531 88.328125 186.394531 " clip-rule="nonzero"/></clipPath><clipPath id="3130cce539"><path d="M 87.074219 186 L 89.871094 186 L 89.871094 188.351562 L 87.074219 188.351562 Z M 87.074219 186 " clip-rule="nonzero"/></clipPath><clipPath id="20e12d208c"><path d="M 89.859375 186.832031 C 88.617188 188.804688 87.449219 188.441406 87.230469 188 C 86.941406 187.636719 87.160156 186.394531 87.597656 186.101562 C 87.960938 185.8125 89.496094 186.25 89.496094 186.25 " clip-rule="nonzero"/></clipPath><clipPath id="5e2f0a79d2"><path d="M 59.21875 182.246094 L 83.109375 182.246094 L 83.109375 196.519531 L 59.21875 196.519531 Z M 59.21875 182.246094 " clip-rule="nonzero"/></clipPath><clipPath id="6f184aa34a"><path d="M 81.390625 188.441406 C 75.113281 186.25 72.847656 186.832031 71.972656 186.394531 C 71.460938 186.101562 71.167969 185.59375 71.167969 185.15625 C 71.097656 184.714844 71.316406 184.058594 71.679688 183.765625 C 72.339844 183.328125 73.871094 183.476562 74.964844 183.765625 C 76.28125 183.984375 77.960938 184.863281 78.910156 185.59375 C 79.566406 186.101562 80.296875 186.761719 80.367188 187.34375 C 80.441406 187.929688 80.003906 188.878906 79.347656 189.242188 C 78.46875 189.828125 75.84375 189.828125 74.820312 189.460938 C 74.089844 189.316406 73.507812 188.878906 73.289062 188.441406 C 73.066406 188 73.140625 187.273438 73.433594 186.90625 C 74.015625 186.324219 76.28125 185.8125 77.300781 186.03125 C 77.960938 186.25 78.835938 186.980469 78.910156 187.492188 C 79.054688 188 78.542969 188.804688 78.105469 189.167969 C 77.523438 189.535156 76.207031 189.898438 75.695312 189.609375 C 75.113281 189.242188 74.675781 187.199219 75.039062 186.761719 C 75.332031 186.394531 76.5 186.394531 76.9375 186.6875 C 77.449219 186.980469 77.886719 187.710938 77.8125 188.367188 C 77.742188 189.316406 76.207031 191.214844 75.40625 191.871094 C 74.894531 192.234375 74.457031 192.457031 73.945312 192.457031 C 73.507812 192.382812 72.921875 191.945312 72.703125 191.578125 C 72.484375 191.214844 72.410156 190.558594 72.628906 190.046875 C 73.066406 189.097656 75.113281 187.417969 76.132812 186.832031 C 76.792969 186.542969 77.523438 186.324219 77.960938 186.46875 C 78.46875 186.6875 78.980469 187.417969 78.980469 188.074219 C 78.910156 189.242188 76.425781 192.234375 75.257812 192.527344 C 74.527344 192.746094 73.507812 192.308594 73.214844 191.871094 C 72.921875 191.433594 73.066406 190.558594 73.359375 189.972656 C 73.726562 189.316406 74.820312 188.21875 75.476562 188.21875 C 76.0625 188.21875 77.011719 188.949219 77.082031 189.679688 C 77.375 190.996094 74.964844 195.667969 73.796875 196.105469 C 73.140625 196.324219 72.117188 195.886719 71.828125 195.375 C 71.460938 194.71875 72.046875 192.601562 72.628906 191.871094 C 73.066406 191.359375 74.089844 190.847656 74.601562 190.996094 C 75.113281 191.140625 75.695312 191.871094 75.769531 192.457031 C 75.84375 193.476562 74.308594 196.105469 73.359375 196.398438 C 72.777344 196.691406 71.898438 196.324219 71.316406 195.742188 C 70.292969 194.644531 68.761719 189.242188 69.34375 188.441406 C 69.710938 188 71.460938 188.148438 71.609375 188.511719 C 71.753906 188.878906 70.511719 190.628906 69.855469 190.777344 C 69.273438 190.847656 68.25 190.117188 67.882812 189.390625 C 67.226562 188.148438 67.375 184.644531 67.8125 183.546875 C 68.03125 182.964844 68.394531 182.597656 68.761719 182.453125 C 69.199219 182.308594 69.855469 182.378906 70.222656 182.597656 C 70.585938 182.890625 70.804688 183.328125 70.949219 183.914062 C 71.167969 185.082031 71.242188 188.074219 70.878906 189.316406 C 70.660156 189.972656 70.292969 190.628906 69.78125 190.847656 C 69.34375 190.996094 68.542969 190.777344 68.105469 190.410156 C 67.519531 189.898438 66.789062 188.660156 66.714844 187.929688 C 66.714844 187.273438 67.007812 186.46875 67.445312 186.25 C 67.8125 185.957031 68.90625 185.957031 69.273438 186.324219 C 69.710938 186.761719 69.636719 188.804688 69.273438 189.316406 C 68.980469 189.679688 68.25 189.898438 67.8125 189.753906 C 67.375 189.679688 66.789062 189.097656 66.496094 188.511719 C 66.132812 187.78125 65.839844 186.101562 66.207031 185.445312 C 66.496094 184.933594 67.664062 184.644531 68.25 184.789062 C 68.613281 184.863281 68.980469 185.375 69.199219 185.882812 C 69.417969 186.542969 69.492188 187.710938 69.199219 188.441406 C 68.980469 189.097656 68.324219 190.046875 67.8125 190.046875 C 67.226562 190.117188 66.058594 188.367188 65.988281 188.441406 C 65.914062 188.511719 67.082031 189.609375 66.863281 189.898438 C 66.570312 190.410156 60.363281 189.679688 59.5625 188.730469 C 59.125 188.21875 59.269531 187.125 59.5625 186.6875 C 59.855469 186.324219 60.582031 185.957031 61.023438 186.101562 C 61.53125 186.175781 62.554688 187.34375 62.554688 187.929688 C 62.554688 188.367188 62.042969 189.023438 61.679688 189.242188 C 61.242188 189.460938 60.511719 189.390625 60.074219 189.167969 C 59.707031 188.949219 59.269531 188.367188 59.269531 187.929688 C 59.195312 187.417969 59.34375 186.761719 59.855469 186.46875 C 60.949219 185.738281 66.425781 186.03125 67.882812 186.761719 C 68.6875 187.125 69.273438 187.929688 69.199219 188.441406 C 69.199219 189.023438 68.324219 189.972656 67.8125 190.046875 C 67.300781 190.117188 66.496094 189.679688 66.132812 189.167969 C 65.765625 188.585938 65.839844 186.980469 65.988281 186.25 C 66.132812 185.664062 66.351562 185.15625 66.714844 184.933594 C 67.082031 184.644531 67.8125 184.570312 68.25 184.789062 C 68.613281 184.933594 68.980469 185.375 69.199219 185.882812 C 69.492188 186.6875 69.855469 188.367188 69.492188 189.023438 C 69.199219 189.535156 68.324219 189.898438 67.8125 189.753906 C 67.375 189.679688 66.644531 189.023438 66.496094 188.511719 C 66.425781 187.929688 66.933594 186.542969 67.445312 186.25 C 67.882812 185.957031 68.761719 185.957031 69.273438 186.324219 C 69.929688 186.761719 70.878906 188.511719 70.804688 189.316406 C 70.804688 189.972656 70.292969 190.703125 69.78125 190.847656 C 69.273438 190.921875 68.175781 190.410156 67.738281 189.753906 C 67.082031 188.660156 67.375 185.15625 67.738281 183.914062 C 67.957031 183.257812 68.324219 182.671875 68.761719 182.453125 C 69.199219 182.234375 69.855469 182.234375 70.222656 182.597656 C 71.023438 183.476562 71.535156 188.511719 70.949219 189.753906 C 70.660156 190.410156 69.929688 190.777344 69.417969 190.777344 C 68.980469 190.847656 68.394531 190.484375 68.105469 190.117188 C 67.882812 189.753906 67.8125 189.097656 67.957031 188.585938 C 68.105469 187.855469 68.761719 186.542969 69.417969 186.324219 C 70.222656 186.03125 71.828125 186.832031 72.410156 187.417969 C 72.847656 187.855469 72.847656 188.367188 72.996094 189.167969 C 73.359375 190.410156 74.308594 193.84375 73.726562 194.28125 C 73.359375 194.644531 71.828125 194.132812 71.679688 193.695312 C 71.535156 193.183594 73.066406 191.066406 73.796875 190.921875 C 74.457031 190.847656 75.695312 191.871094 75.769531 192.457031 C 75.84375 193.039062 75.113281 194.0625 74.527344 194.351562 C 73.796875 194.71875 72.046875 194.71875 71.753906 194.207031 C 71.242188 193.402344 73.652344 189.023438 74.746094 188.441406 C 75.332031 188.074219 76.207031 188.292969 76.574219 188.660156 C 76.9375 189.023438 77.082031 190.191406 76.792969 190.847656 C 76.574219 191.507812 75.550781 192.601562 74.894531 192.675781 C 74.234375 192.675781 73.066406 191.796875 72.996094 191.066406 C 72.847656 190.046875 75.332031 187.125 76.425781 186.613281 C 77.082031 186.324219 77.886719 186.394531 78.324219 186.6875 C 78.691406 186.980469 79.054688 187.855469 78.910156 188.511719 C 78.617188 189.535156 76.132812 191.578125 75.113281 192.089844 C 74.527344 192.382812 74.015625 192.527344 73.578125 192.308594 C 73.066406 192.089844 72.484375 191.140625 72.484375 190.410156 C 72.558594 189.460938 73.871094 187.78125 74.675781 187.125 C 75.257812 186.6875 76.0625 186.394531 76.574219 186.542969 C 77.082031 186.6875 77.742188 187.492188 77.8125 187.929688 C 77.960938 188.367188 77.8125 188.804688 77.523438 189.097656 C 77.300781 189.460938 76.71875 189.753906 76.207031 189.828125 C 75.550781 189.898438 74.675781 189.828125 74.164062 189.460938 C 73.652344 189.167969 72.996094 188.367188 73.140625 187.929688 C 73.359375 187.199219 76.28125 185.882812 77.300781 186.03125 C 78.03125 186.25 78.910156 187.34375 78.910156 187.855469 C 78.910156 188.367188 78.324219 189.023438 77.742188 189.316406 C 76.9375 189.679688 75.183594 189.753906 74.382812 189.460938 C 73.796875 189.167969 73.289062 188.511719 73.140625 188.074219 C 73.066406 187.636719 73.289062 186.980469 73.726562 186.613281 C 74.457031 186.101562 76.9375 186.175781 78.105469 186.25 C 78.835938 186.324219 79.640625 186.324219 80.003906 186.6875 C 80.296875 186.90625 80.515625 187.34375 80.367188 187.710938 C 80.296875 188.292969 79.417969 189.167969 78.617188 189.316406 C 77.082031 189.535156 73.066406 187.273438 71.972656 186.394531 C 71.460938 185.957031 71.167969 185.59375 71.167969 185.15625 C 71.167969 184.644531 71.460938 183.839844 72.046875 183.546875 C 73.066406 182.964844 75.988281 183.621094 77.8125 184.058594 C 79.347656 184.351562 81.316406 184.863281 82.195312 185.59375 C 82.707031 186.101562 83.214844 186.90625 83.070312 187.34375 C 82.925781 187.855469 81.390625 188.441406 81.390625 188.441406 " clip-rule="nonzero"/></clipPath><clipPath id="5b3ed664c8"><path d="M 54.660156 186.417969 L 57.457031 186.417969 L 57.457031 188.789062 L 54.660156 188.789062 Z M 54.660156 186.417969 " clip-rule="nonzero"/></clipPath><clipPath id="30d0f650f2"><path d="M 57.445312 187.273438 C 56.203125 189.242188 55.035156 188.878906 54.816406 188.441406 C 54.523438 188.074219 54.742188 186.832031 55.179688 186.542969 C 55.546875 186.25 57.078125 186.6875 57.078125 186.6875 " clip-rule="nonzero"/></clipPath><clipPath id="f5650e62cf"><path d="M 56.121094 186.5625 L 58.914062 186.5625 L 58.914062 188.9375 L 56.121094 188.9375 Z M 56.121094 186.5625 " clip-rule="nonzero"/></clipPath><clipPath id="ddb8f8aa3e"><path d="M 58.90625 187.417969 C 57.664062 189.390625 56.496094 189.023438 56.277344 188.585938 C 55.984375 188.21875 56.203125 186.980469 56.640625 186.6875 C 57.007812 186.394531 58.539062 186.832031 58.539062 186.832031 " clip-rule="nonzero"/></clipPath><clipPath id="cb5170b800"><path d="M 57 186.417969 L 59.792969 186.417969 L 59.792969 188.789062 L 57 188.789062 Z M 57 186.417969 " clip-rule="nonzero"/></clipPath><clipPath id="195c33a859"><path d="M 59.78125 187.273438 C 58.539062 189.242188 57.371094 188.878906 57.152344 188.441406 C 56.859375 188.074219 57.078125 186.832031 57.515625 186.542969 C 57.882812 186.25 59.414062 186.6875 59.414062 186.6875 " clip-rule="nonzero"/></clipPath><clipPath id="c345b238f3"><path d="M 58.308594 186.417969 L 61.105469 186.417969 L 61.105469 188.789062 L 58.308594 188.789062 Z M 58.308594 186.417969 " clip-rule="nonzero"/></clipPath><clipPath id="f40ff4aa37"><path d="M 61.09375 187.273438 C 59.855469 189.242188 58.6875 188.878906 58.464844 188.441406 C 58.175781 188.074219 58.394531 186.832031 58.832031 186.542969 C 59.195312 186.25 60.730469 186.6875 60.730469 186.6875 " clip-rule="nonzero"/></clipPath><clipPath id="3d79766805"><path d="M 58.164062 186.5625 L 60.960938 186.5625 L 60.960938 188.9375 L 58.164062 188.9375 Z M 58.164062 186.5625 " clip-rule="nonzero"/></clipPath><clipPath id="2f48127bb0"><path d="M 60.949219 187.417969 C 59.707031 189.390625 58.539062 189.023438 58.320312 188.585938 C 58.027344 188.21875 58.246094 186.980469 58.6875 186.6875 C 59.050781 186.394531 60.582031 186.832031 60.582031 186.832031 " clip-rule="nonzero"/></clipPath><clipPath id="5f2e7d1b76"><path d="M 60.0625 186.5625 L 62.859375 186.5625 L 62.859375 188.9375 L 60.0625 188.9375 Z M 60.0625 186.5625 " clip-rule="nonzero"/></clipPath><clipPath id="6564c92842"><path d="M 62.847656 187.417969 C 61.605469 189.390625 60.4375 189.023438 60.21875 188.585938 C 59.925781 188.21875 60.144531 186.980469 60.582031 186.6875 C 60.949219 186.394531 62.480469 186.832031 62.480469 186.832031 " clip-rule="nonzero"/></clipPath><clipPath id="f4f7e0fde4"><path d="M 57.753906 186.808594 L 60.75 186.808594 L 60.75 189.800781 L 57.753906 189.800781 Z M 57.753906 186.808594 " clip-rule="nonzero"/></clipPath><clipPath id="2e62ef1416"><path d="M 60.363281 187.273438 C 60 189.753906 59.34375 189.828125 58.90625 189.753906 C 58.539062 189.679688 58.027344 189.167969 57.882812 188.804688 C 57.738281 188.441406 57.882812 187.78125 58.101562 187.492188 C 58.320312 187.125 58.90625 186.832031 59.34375 186.832031 C 59.707031 186.832031 60.292969 187.199219 60.511719 187.492188 C 60.730469 187.855469 60.804688 188.511719 60.65625 188.878906 C 60.511719 189.242188 60 189.679688 59.5625 189.753906 C 59.125 189.828125 58.246094 189.535156 57.957031 189.097656 C 57.738281 188.660156 57.664062 187.492188 58.027344 187.125 C 58.394531 186.761719 60 186.90625 60 186.90625 " clip-rule="nonzero"/></clipPath><clipPath id="ad894c0929"><path d="M 58.078125 175.710938 L 72.429688 175.710938 L 72.429688 199.160156 L 58.078125 199.160156 Z M 58.078125 175.710938 " clip-rule="nonzero"/></clipPath><clipPath id="2910453425"><path d="M 59.5625 186.980469 C 63.722656 187.855469 66.425781 189.316406 67.957031 190.628906 C 69.273438 191.796875 70.367188 193.183594 71.023438 194.425781 C 71.535156 195.375 71.972656 196.542969 71.898438 197.347656 C 71.828125 197.929688 71.609375 198.515625 71.242188 198.734375 C 70.804688 199.027344 69.78125 199.246094 69.273438 198.878906 C 68.46875 198.222656 68.980469 195.375 68.105469 193.695312 C 67.007812 191.796875 64.308594 189.023438 62.921875 188.367188 C 62.261719 188 61.605469 188.367188 61.167969 188.074219 C 60.730469 187.78125 60.363281 187.199219 60.292969 186.761719 C 60.21875 186.25 60.4375 185.738281 60.875 185.226562 C 61.53125 184.351562 63.722656 183.839844 64.964844 182.527344 C 66.496094 180.917969 67.519531 176.320312 68.832031 175.808594 C 69.5625 175.589844 70.585938 175.957031 71.023438 176.683594 C 71.828125 177.855469 71.679688 182.746094 70.804688 183.914062 C 70.367188 184.644531 69.273438 185.007812 68.6875 184.863281 C 68.105469 184.714844 67.59375 183.695312 67.519531 182.890625 C 67.445312 181.578125 68.6875 178.511719 69.492188 177.707031 C 70 177.34375 70.585938 177.195312 71.023438 177.269531 C 71.460938 177.34375 71.828125 177.632812 72.046875 177.925781 C 72.339844 178.363281 72.410156 178.875 72.265625 179.53125 C 72.117188 180.917969 70.585938 184.207031 69.34375 185.59375 C 68.324219 186.6875 66.714844 187.710938 65.839844 187.636719 C 65.183594 187.5625 64.527344 186.90625 64.378906 186.394531 C 64.308594 185.882812 64.671875 184.789062 65.109375 184.570312 C 65.621094 184.351562 67.082031 184.714844 67.445312 185.226562 C 67.738281 185.519531 67.664062 186.324219 67.445312 186.761719 C 67.226562 187.125 66.644531 187.5625 66.207031 187.636719 C 65.765625 187.710938 65.039062 187.417969 64.746094 187.050781 C 64.453125 186.613281 64.378906 185.519531 64.597656 185.082031 C 64.816406 184.714844 65.546875 184.351562 65.988281 184.351562 C 66.425781 184.351562 67.082031 184.644531 67.375 185.082031 C 67.59375 185.445312 67.664062 186.324219 67.445312 186.761719 C 67.226562 187.125 66.644531 187.5625 66.207031 187.636719 C 65.765625 187.710938 65.039062 187.417969 64.746094 187.050781 C 64.453125 186.761719 64.234375 186.03125 64.378906 185.59375 C 64.597656 185.007812 65.765625 184.863281 66.425781 184.058594 C 67.445312 182.816406 68.324219 179.023438 69.273438 178.074219 C 69.710938 177.5625 70.148438 177.269531 70.660156 177.269531 C 71.097656 177.269531 71.753906 177.632812 72.046875 177.925781 C 72.339844 178.292969 72.410156 178.582031 72.410156 179.09375 C 72.339844 180.261719 71.167969 183.839844 70.292969 184.570312 C 69.78125 185.007812 69.125 185.007812 68.6875 184.863281 C 68.25 184.714844 67.738281 184.277344 67.519531 183.695312 C 67.15625 182.527344 67.300781 178.21875 68.175781 177.707031 C 68.6875 177.414062 70.441406 178 70.660156 178.730469 C 71.097656 180.042969 67.15625 185.300781 65.328125 186.832031 C 64.234375 187.78125 62.847656 188.292969 61.972656 188.292969 C 61.53125 188.292969 61.09375 188.148438 60.875 187.855469 C 60.511719 187.492188 60.21875 186.832031 60.292969 186.324219 C 60.363281 185.882812 60.730469 185.226562 61.167969 185.007812 C 61.75 184.714844 62.699219 184.644531 63.648438 185.007812 C 65.402344 185.664062 68.832031 188.804688 70.222656 190.921875 C 71.316406 192.675781 71.753906 195.15625 71.898438 196.398438 C 71.972656 197.128906 71.898438 198.003906 71.753906 198.078125 C 71.609375 198.078125 71.097656 195.960938 71.097656 195.960938 C 71.097656 195.960938 71.972656 197.636719 71.753906 198.148438 C 71.535156 198.585938 70.585938 199.171875 70.074219 199.097656 C 69.5625 199.097656 68.832031 198.441406 68.542969 197.929688 C 68.175781 197.347656 68.46875 196.46875 68.105469 195.742188 C 67.738281 194.9375 67.226562 194.0625 66.207031 193.183594 C 64.597656 191.796875 59.195312 190.484375 58.320312 189.316406 C 58.027344 188.804688 58.027344 188.292969 58.175781 187.929688 C 58.394531 187.492188 59.5625 186.980469 59.5625 186.980469 " clip-rule="nonzero"/></clipPath><clipPath id="8e2e812382"><path d="M 70.199219 168.269531 L 73.167969 168.269531 L 73.167969 171.375 L 70.199219 171.375 Z M 70.199219 168.269531 " clip-rule="nonzero"/></clipPath><clipPath id="f9d67622d0"><path d="M 73.140625 169.894531 C 72.191406 171.355469 71.535156 171.429688 71.167969 171.28125 C 70.730469 171.136719 70.367188 170.625 70.222656 170.261719 C 70.148438 169.824219 70.367188 169.164062 70.585938 168.875 C 70.878906 168.582031 71.535156 168.4375 71.898438 168.4375 C 72.339844 168.507812 72.847656 168.945312 72.996094 169.3125 C 73.214844 169.675781 73.140625 170.332031 72.921875 170.699219 C 72.703125 170.992188 72.191406 171.429688 71.753906 171.355469 C 71.242188 171.355469 70.222656 170.40625 70.222656 169.894531 C 70.222656 169.382812 71.167969 168.289062 71.679688 168.289062 C 72.191406 168.214844 73.140625 169.605469 73.140625 169.605469 " clip-rule="nonzero"/></clipPath><clipPath id="1c1b3517b5"><path d="M 70.28125 169.917969 L 73.078125 169.917969 L 73.078125 172.289062 L 70.28125 172.289062 Z M 70.28125 169.917969 " clip-rule="nonzero"/></clipPath><clipPath id="1df4eca809"><path d="M 73.066406 170.773438 C 71.828125 172.742188 70.660156 172.378906 70.441406 171.941406 C 70.148438 171.574219 70.367188 170.332031 70.804688 170.042969 C 71.167969 169.75 72.703125 170.1875 72.703125 170.1875 " clip-rule="nonzero"/></clipPath><clipPath id="d1b01a5b38"><path d="M 70.199219 170.167969 L 73.167969 170.167969 L 73.167969 173.203125 L 70.199219 173.203125 Z M 70.199219 170.167969 " clip-rule="nonzero"/></clipPath><clipPath id="6cd4898bd3"><path d="M 73.140625 171.722656 C 72.191406 173.179688 71.535156 173.253906 71.167969 173.109375 C 70.730469 172.960938 70.367188 172.449219 70.222656 172.011719 C 70.148438 171.648438 70.367188 170.992188 70.585938 170.699219 C 70.878906 170.40625 71.535156 170.1875 71.898438 170.261719 C 72.339844 170.332031 72.847656 170.773438 72.996094 171.136719 C 73.214844 171.5 73.140625 172.160156 72.921875 172.449219 C 72.703125 172.816406 72.191406 173.253906 71.753906 173.179688 C 71.242188 173.109375 70.222656 172.230469 70.222656 171.722656 C 70.148438 171.210938 70.949219 170.261719 71.390625 170.1875 C 71.898438 170.113281 73.140625 171.574219 73.140625 171.574219 " clip-rule="nonzero"/></clipPath><clipPath id="97b9bef36c"><path d="M 70.199219 171.1875 L 73.167969 171.1875 L 73.167969 174.226562 L 70.199219 174.226562 Z M 70.199219 171.1875 " clip-rule="nonzero"/></clipPath><clipPath id="06932bef44"><path d="M 73.140625 172.742188 C 72.191406 174.203125 71.535156 174.277344 71.167969 174.128906 C 70.730469 173.984375 70.367188 173.472656 70.222656 173.035156 C 70.148438 172.671875 70.367188 172.011719 70.585938 171.722656 C 70.878906 171.429688 71.535156 171.210938 71.898438 171.28125 C 72.339844 171.355469 72.847656 171.792969 72.996094 172.160156 C 73.214844 172.523438 73.140625 173.179688 72.921875 173.472656 C 72.703125 173.839844 72.191406 174.277344 71.753906 174.203125 C 71.242188 174.128906 70.222656 173.253906 70.222656 172.742188 C 70.148438 172.230469 70.949219 171.28125 71.390625 171.210938 C 71.898438 171.136719 73.140625 172.597656 73.140625 172.597656 " clip-rule="nonzero"/></clipPath><clipPath id="0587fae667"><path d="M 70.429688 171.960938 L 73.226562 171.960938 L 73.226562 174.335938 L 70.429688 174.335938 Z M 70.429688 171.960938 " clip-rule="nonzero"/></clipPath><clipPath id="dfeca0ff6b"><path d="M 73.214844 172.816406 C 71.972656 174.789062 70.804688 174.421875 70.585938 173.984375 C 70.292969 173.621094 70.511719 172.378906 70.949219 172.085938 C 71.316406 171.792969 72.847656 172.230469 72.847656 172.230469 " clip-rule="nonzero"/></clipPath><clipPath id="947e7908c9"><path d="M 70.621094 172.339844 L 84.351562 172.339844 L 84.351562 187.96875 L 70.621094 187.96875 Z M 70.621094 172.339844 " clip-rule="nonzero"/></clipPath><clipPath id="e5caa6eb4d"><path d="M 73.507812 173.253906 C 75.332031 177.414062 74.746094 178 74.234375 178.144531 C 73.796875 178.292969 72.628906 177.855469 72.628906 177.5625 C 72.558594 177.195312 75.039062 175.808594 75.332031 176.027344 C 75.550781 176.175781 75.257812 177.414062 74.894531 177.78125 C 74.601562 178.074219 73.945312 178.21875 73.507812 178.144531 C 73.140625 178.074219 72.410156 177.5625 72.410156 177.195312 C 72.484375 176.757812 74.164062 175.296875 74.964844 175.515625 C 76.132812 175.808594 76.71875 179.75 78.25 181.359375 C 79.785156 183.109375 83.652344 184.425781 84.164062 185.59375 C 84.457031 186.175781 84.238281 186.832031 84.019531 187.199219 C 83.726562 187.5625 83.070312 187.929688 82.558594 187.929688 C 82.046875 187.855469 81.097656 187.125 80.953125 186.613281 C 80.808594 186.175781 81.027344 185.445312 81.316406 185.082031 C 81.609375 184.714844 82.339844 184.496094 82.851562 184.496094 C 83.289062 184.570312 83.945312 185.007812 84.09375 185.445312 C 84.3125 185.957031 84.09375 187.050781 83.726562 187.492188 C 83.433594 187.78125 82.851562 187.929688 82.195312 187.855469 C 80.808594 187.636719 77.59375 185.664062 75.988281 184.207031 C 74.675781 182.890625 73.578125 180.847656 73.140625 179.605469 C 72.921875 178.949219 72.703125 178.4375 72.921875 177.855469 C 73.214844 177.195312 75.113281 175.882812 75.332031 176.027344 C 75.476562 176.175781 74.746094 177.925781 74.308594 178.144531 C 73.796875 178.292969 72.410156 177.5625 72.410156 177.195312 C 72.410156 176.832031 74.964844 175.808594 75.332031 176.101562 C 75.550781 176.246094 75.257812 177.488281 74.894531 177.78125 C 74.527344 178.144531 73.726562 178.292969 73.140625 178.074219 C 72.265625 177.632812 70.660156 175.078125 70.660156 174.058594 C 70.660156 173.398438 71.242188 172.523438 71.753906 172.378906 C 72.191406 172.230469 73.507812 173.253906 73.507812 173.253906 " clip-rule="nonzero"/></clipPath><clipPath id="a63282851e"><path d="M 74.433594 182.140625 L 77.402344 182.140625 L 77.402344 185.175781 L 74.433594 185.175781 Z M 74.433594 182.140625 " clip-rule="nonzero"/></clipPath><clipPath id="1c29740347"><path d="M 77.375 183.695312 C 76.425781 185.15625 75.769531 185.226562 75.40625 185.082031 C 74.964844 184.933594 74.601562 184.425781 74.457031 183.984375 C 74.382812 183.621094 74.601562 182.964844 74.820312 182.671875 C 75.113281 182.378906 75.769531 182.160156 76.132812 182.234375 C 76.574219 182.308594 77.082031 182.746094 77.230469 183.109375 C 77.449219 183.476562 77.375 184.132812 77.15625 184.425781 C 76.9375 184.789062 76.425781 185.226562 75.988281 185.15625 C 75.476562 185.082031 74.457031 184.207031 74.457031 183.695312 C 74.382812 183.183594 75.183594 182.234375 75.625 182.160156 C 76.132812 182.089844 77.375 183.546875 77.375 183.546875 " clip-rule="nonzero"/></clipPath><clipPath id="662a842429"><path d="M 67.851562 183.589844 L 80.980469 183.589844 L 80.980469 192.140625 L 67.851562 192.140625 Z M 67.851562 183.589844 " clip-rule="nonzero"/></clipPath><clipPath id="a1a55ae683"><path d="M 79.417969 188 C 71.023438 187.710938 71.097656 191.433594 70.148438 191.945312 C 69.5625 192.234375 68.613281 192.015625 68.25 191.652344 C 67.957031 191.285156 67.882812 190.191406 68.105469 189.753906 C 68.25 189.390625 68.90625 189.023438 69.34375 189.023438 C 69.78125 189.023438 70.441406 189.242188 70.660156 189.609375 C 70.878906 190.046875 70.878906 191.066406 70.660156 191.507812 C 70.367188 191.871094 69.710938 192.234375 69.34375 192.089844 C 68.761719 192.015625 67.957031 191.140625 67.882812 190.410156 C 67.738281 188.949219 69.492188 185.007812 71.316406 184.058594 C 73.433594 182.964844 79.128906 184.207031 80.367188 185.300781 C 80.953125 185.8125 81.097656 186.761719 80.878906 187.199219 C 80.734375 187.636719 79.417969 188 79.417969 188 " clip-rule="nonzero"/></clipPath></defs><g fill="#2b5289" fill-opacity="1"><g transform="translate(145.031186, 167.820364)"><g><path d="M 17.5625 -20.875 L 17.5625 -7.40625 C 17.5625 -4.84375 16.867188 -2.90625 15.484375 -1.59375 C 14.097656 -0.28125 12.070312 0.375 9.40625 0.375 C 6.738281 0.375 4.710938 -0.28125 3.328125 -1.59375 C 1.953125 -2.90625 1.265625 -4.84375 1.265625 -7.40625 L 1.265625 -20.875 L 6.015625 -20.875 L 6.015625 -8.796875 C 6.015625 -7.117188 6.28125 -5.945312 6.8125 -5.28125 C 7.34375 -4.625 8.207031 -4.296875 9.40625 -4.296875 C 10.601562 -4.296875 11.46875 -4.625 12 -5.28125 C 12.53125 -5.945312 12.796875 -7.117188 12.796875 -8.796875 L 12.796875 -20.875 Z M 17.5625 -20.875 "/></g></g></g><g fill="#2b5289" fill-opacity="1"><g transform="translate(165.719181, 167.820364)"><g><path d="M 1.515625 -20.875 L 8.984375 -20.875 C 10.984375 -20.875 12.613281 -20.335938 13.875 -19.265625 C 15.144531 -18.191406 15.78125 -16.660156 15.78125 -14.671875 C 15.78125 -13.140625 15.394531 -11.851562 14.625 -10.8125 C 13.863281 -9.78125 12.828125 -9.050781 11.515625 -8.625 L 18.6875 0 L 12.65625 0 L 6.28125 -8.25 L 6.28125 0 L 1.515625 0 Z M 6.28125 -11.609375 L 6.828125 -11.609375 C 7.265625 -11.609375 7.632812 -11.613281 7.9375 -11.625 C 8.25 -11.644531 8.597656 -11.707031 8.984375 -11.8125 C 9.367188 -11.914062 9.675781 -12.054688 9.90625 -12.234375 C 10.144531 -12.421875 10.347656 -12.691406 10.515625 -13.046875 C 10.691406 -13.398438 10.78125 -13.832031 10.78125 -14.34375 C 10.78125 -14.851562 10.691406 -15.285156 10.515625 -15.640625 C 10.347656 -15.992188 10.144531 -16.257812 9.90625 -16.4375 C 9.675781 -16.625 9.367188 -16.769531 8.984375 -16.875 C 8.597656 -16.976562 8.25 -17.035156 7.9375 -17.046875 C 7.632812 -17.066406 7.265625 -17.078125 6.828125 -17.078125 L 6.28125 -17.078125 Z M 6.28125 -11.609375 "/></g></g></g><g fill="#2b5289" fill-opacity="1"><g transform="translate(185.699004, 167.820364)"><g><path d="M 20.390625 -11.6875 L 20.390625 -7.15625 C 19.847656 -4.675781 18.664062 -2.800781 16.84375 -1.53125 C 15.019531 -0.257812 12.988281 0.375 10.75 0.375 C 7.9375 0.375 5.535156 -0.675781 3.546875 -2.78125 C 1.566406 -4.882812 0.578125 -7.429688 0.578125 -10.421875 C 0.578125 -13.453125 1.546875 -16.015625 3.484375 -18.109375 C 5.429688 -20.203125 7.851562 -21.25 10.75 -21.25 C 14.132812 -21.25 16.816406 -20.0625 18.796875 -17.6875 L 15.6875 -14.265625 C 14.570312 -16.054688 13.019531 -16.953125 11.03125 -16.953125 C 9.5625 -16.953125 8.304688 -16.3125 7.265625 -15.03125 C 6.234375 -13.757812 5.71875 -12.222656 5.71875 -10.421875 C 5.71875 -8.648438 6.234375 -7.132812 7.265625 -5.875 C 8.304688 -4.625 9.5625 -4 11.03125 -4 C 12.238281 -4 13.296875 -4.363281 14.203125 -5.09375 C 15.109375 -5.832031 15.5625 -6.804688 15.5625 -8.015625 L 10.75 -8.015625 L 10.75 -11.6875 Z M 20.390625 -11.6875 "/></g></g></g><g fill="#2b5289" fill-opacity="1"><g transform="translate(208.536723, 167.820364)"><g><path d="M 13.453125 -20.875 L 13.453125 -16.703125 L 6.28125 -16.703125 L 6.28125 -12.546875 L 13.15625 -12.546875 L 13.15625 -8.375 L 6.28125 -8.375 L 6.28125 -4.171875 L 13.453125 -4.171875 L 13.453125 0 L 1.515625 0 L 1.515625 -20.875 Z M 13.453125 -20.875 "/></g></g></g><g fill="#2b5289" fill-opacity="1"><g transform="translate(225.076994, 167.820364)"><g><path d="M 6.28125 -12.953125 L 6.28125 0 L 1.515625 0 L 1.515625 -20.875 L 6.28125 -20.875 L 14.578125 -7.921875 L 14.625 -7.921875 L 14.625 -20.875 L 19.375 -20.875 L 19.375 0 L 14.625 0 L 6.328125 -12.953125 Z M 6.28125 -12.953125 "/></g></g></g><g fill="#2b5289" fill-opacity="1"><g transform="translate(247.838818, 167.820364)"><g><path d="M 12.625 -4.296875 C 13.34375 -4.296875 14.046875 -4.40625 14.734375 -4.625 C 15.421875 -4.84375 15.921875 -5.054688 16.234375 -5.265625 L 16.71875 -5.59375 L 18.75 -1.546875 C 18.675781 -1.492188 18.582031 -1.425781 18.46875 -1.34375 C 18.351562 -1.257812 18.078125 -1.101562 17.640625 -0.875 C 17.210938 -0.644531 16.753906 -0.445312 16.265625 -0.28125 C 15.773438 -0.113281 15.132812 0.0351562 14.34375 0.171875 C 13.550781 0.304688 12.734375 0.375 11.890625 0.375 C 9.953125 0.375 8.113281 -0.0976562 6.375 -1.046875 C 4.632812 -2.003906 3.234375 -3.316406 2.171875 -4.984375 C 1.109375 -6.648438 0.578125 -8.453125 0.578125 -10.390625 C 0.578125 -11.859375 0.890625 -13.265625 1.515625 -14.609375 C 2.140625 -15.960938 2.96875 -17.117188 4 -18.078125 C 5.039062 -19.046875 6.253906 -19.816406 7.640625 -20.390625 C 9.023438 -20.960938 10.441406 -21.25 11.890625 -21.25 C 13.234375 -21.25 14.472656 -21.085938 15.609375 -20.765625 C 16.753906 -20.441406 17.5625 -20.125 18.03125 -19.8125 L 18.75 -19.328125 L 16.71875 -15.28125 C 16.601562 -15.382812 16.425781 -15.503906 16.1875 -15.640625 C 15.945312 -15.785156 15.472656 -15.972656 14.765625 -16.203125 C 14.054688 -16.441406 13.34375 -16.5625 12.625 -16.5625 C 11.476562 -16.5625 10.445312 -16.375 9.53125 -16 C 8.625 -15.632812 7.90625 -15.148438 7.375 -14.546875 C 6.84375 -13.941406 6.4375 -13.285156 6.15625 -12.578125 C 5.882812 -11.878906 5.75 -11.171875 5.75 -10.453125 C 5.75 -8.859375 6.34375 -7.429688 7.53125 -6.171875 C 8.71875 -4.921875 10.414062 -4.296875 12.625 -4.296875 Z M 12.625 -4.296875 "/></g></g></g><g fill="#2b5289" fill-opacity="1"><g transform="translate(268.7544, 167.820364)"><g><path d="M 6.28125 -20.875 L 6.28125 0 L 1.515625 0 L 1.515625 -20.875 Z M 6.28125 -20.875 "/></g></g></g><g fill="#2b5289" fill-opacity="1"><g transform="translate(278.415536, 167.820364)"><g><path d="M 12.125 -20.875 L 20.546875 0 L 15.4375 0 L 13.890625 -4.171875 L 5.9375 -4.171875 L 4.40625 0 L -0.703125 0 L 7.71875 -20.875 Z M 12.265625 -8.34375 L 9.9375 -14.421875 L 9.890625 -14.421875 L 7.5625 -8.34375 Z M 12.265625 -8.34375 "/></g></g></g><g fill="#2b5289" fill-opacity="1"><g transform="translate(300.115152, 167.820364)"><g><path d="M 9.203125 -21.25 C 10.335938 -21.25 11.441406 -21.082031 12.515625 -20.75 C 13.597656 -20.425781 14.398438 -20.101562 14.921875 -19.78125 L 15.6875 -19.28125 L 13.765625 -15.484375 C 13.609375 -15.585938 13.394531 -15.71875 13.125 -15.875 C 12.851562 -16.03125 12.347656 -16.242188 11.609375 -16.515625 C 10.867188 -16.785156 10.175781 -16.921875 9.53125 -16.921875 C 8.738281 -16.921875 8.128906 -16.75 7.703125 -16.40625 C 7.273438 -16.070312 7.0625 -15.617188 7.0625 -15.046875 C 7.0625 -14.765625 7.160156 -14.5 7.359375 -14.25 C 7.566406 -14.007812 7.910156 -13.75 8.390625 -13.46875 C 8.878906 -13.1875 9.3125 -12.960938 9.6875 -12.796875 C 10.0625 -12.628906 10.632812 -12.378906 11.40625 -12.046875 C 12.757812 -11.472656 13.910156 -10.691406 14.859375 -9.703125 C 15.816406 -8.710938 16.296875 -7.59375 16.296875 -6.34375 C 16.296875 -5.144531 16.078125 -4.097656 15.640625 -3.203125 C 15.210938 -2.316406 14.625 -1.617188 13.875 -1.109375 C 13.125 -0.609375 12.289062 -0.238281 11.375 0 C 10.46875 0.25 9.484375 0.375 8.421875 0.375 C 7.515625 0.375 6.617188 0.28125 5.734375 0.09375 C 4.859375 -0.0820312 4.125 -0.3125 3.53125 -0.59375 C 2.945312 -0.875 2.414062 -1.148438 1.9375 -1.421875 C 1.46875 -1.691406 1.125 -1.914062 0.90625 -2.09375 L 0.578125 -2.375 L 2.953125 -6.375 C 3.160156 -6.207031 3.441406 -5.992188 3.796875 -5.734375 C 4.148438 -5.472656 4.773438 -5.117188 5.671875 -4.671875 C 6.578125 -4.234375 7.375 -4.015625 8.0625 -4.015625 C 10.070312 -4.015625 11.078125 -4.703125 11.078125 -6.078125 C 11.078125 -6.359375 11.003906 -6.617188 10.859375 -6.859375 C 10.722656 -7.109375 10.472656 -7.351562 10.109375 -7.59375 C 9.742188 -7.84375 9.421875 -8.039062 9.140625 -8.1875 C 8.867188 -8.332031 8.414062 -8.550781 7.78125 -8.84375 C 7.144531 -9.132812 6.675781 -9.359375 6.375 -9.515625 C 5.113281 -10.140625 4.132812 -10.914062 3.4375 -11.84375 C 2.75 -12.78125 2.40625 -13.789062 2.40625 -14.875 C 2.40625 -16.75 3.09375 -18.28125 4.46875 -19.46875 C 5.851562 -20.65625 7.429688 -21.25 9.203125 -21.25 Z M 9.203125 -21.25 "/></g></g></g><g fill="#2b5289" fill-opacity="1"><g transform="translate(145.031186, 218.768424)"><g><path d="M 7.4375 -17.15625 C 8.34375 -17.15625 9.234375 -17.019531 10.109375 -16.75 C 10.984375 -16.488281 11.628906 -16.226562 12.046875 -15.96875 L 12.65625 -15.5625 L 11.109375 -12.5 C 10.984375 -12.582031 10.8125 -12.6875 10.59375 -12.8125 C 10.375 -12.945312 9.960938 -13.117188 9.359375 -13.328125 C 8.765625 -13.546875 8.210938 -13.65625 7.703125 -13.65625 C 7.054688 -13.65625 6.5625 -13.519531 6.21875 -13.25 C 5.875 -12.976562 5.703125 -12.613281 5.703125 -12.15625 C 5.703125 -11.914062 5.78125 -11.695312 5.9375 -11.5 C 6.101562 -11.3125 6.382812 -11.101562 6.78125 -10.875 C 7.175781 -10.644531 7.519531 -10.460938 7.8125 -10.328125 C 8.113281 -10.191406 8.578125 -9.988281 9.203125 -9.71875 C 10.296875 -9.257812 11.226562 -8.628906 12 -7.828125 C 12.769531 -7.035156 13.15625 -6.132812 13.15625 -5.125 C 13.15625 -4.15625 12.976562 -3.3125 12.625 -2.59375 C 12.28125 -1.875 11.804688 -1.304688 11.203125 -0.890625 C 10.597656 -0.484375 9.925781 -0.179688 9.1875 0.015625 C 8.457031 0.210938 7.660156 0.3125 6.796875 0.3125 C 6.066406 0.3125 5.347656 0.234375 4.640625 0.078125 C 3.929688 -0.0664062 3.335938 -0.25 2.859375 -0.46875 C 2.378906 -0.695312 1.945312 -0.921875 1.5625 -1.140625 C 1.1875 -1.359375 0.910156 -1.539062 0.734375 -1.6875 L 0.46875 -1.921875 L 2.390625 -5.140625 C 2.554688 -5.003906 2.78125 -4.832031 3.0625 -4.625 C 3.34375 -4.414062 3.847656 -4.132812 4.578125 -3.78125 C 5.304688 -3.425781 5.953125 -3.25 6.515625 -3.25 C 8.128906 -3.25 8.9375 -3.800781 8.9375 -4.90625 C 8.9375 -5.132812 8.878906 -5.347656 8.765625 -5.546875 C 8.648438 -5.742188 8.445312 -5.941406 8.15625 -6.140625 C 7.863281 -6.335938 7.601562 -6.492188 7.375 -6.609375 C 7.15625 -6.722656 6.789062 -6.898438 6.28125 -7.140625 C 5.769531 -7.378906 5.390625 -7.554688 5.140625 -7.671875 C 4.117188 -8.179688 3.328125 -8.8125 2.765625 -9.5625 C 2.210938 -10.320312 1.9375 -11.140625 1.9375 -12.015625 C 1.9375 -13.523438 2.492188 -14.757812 3.609375 -15.71875 C 4.734375 -16.675781 6.007812 -17.15625 7.4375 -17.15625 Z M 7.4375 -17.15625 "/></g></g></g><g fill="#2b5289" fill-opacity="1"><g transform="translate(160.260735, 218.768424)"><g><path d="M 9.78125 -16.84375 L 16.578125 0 L 12.453125 0 L 11.21875 -3.375 L 4.796875 -3.375 L 3.546875 0 L -0.578125 0 L 6.234375 -16.84375 Z M 9.90625 -6.734375 L 8.03125 -11.640625 L 7.984375 -11.640625 L 6.109375 -6.734375 Z M 9.90625 -6.734375 "/></g></g></g><g fill="#2b5289" fill-opacity="1"><g transform="translate(177.776665, 218.768424)"><g><path d="M 5.0625 -10.453125 L 5.0625 0 L 1.21875 0 L 1.21875 -16.84375 L 5.0625 -16.84375 L 11.765625 -6.390625 L 11.796875 -6.390625 L 11.796875 -16.84375 L 15.640625 -16.84375 L 15.640625 0 L 11.796875 0 L 5.109375 -10.453125 Z M 5.0625 -10.453125 "/></g></g></g><g fill="#2b5289" fill-opacity="1"><g transform="translate(196.149984, 218.768424)"><g><path d="M 0.15625 -13.484375 L 0.15625 -16.84375 L 12.015625 -16.84375 L 12.015625 -13.484375 L 8 -13.484375 L 8 0 L 4.171875 0 L 4.171875 -13.484375 Z M 0.15625 -13.484375 "/></g></g></g><g fill="#2b5289" fill-opacity="1"><g transform="translate(209.828059, 218.768424)"><g><path d="M 9.78125 -16.84375 L 16.578125 0 L 12.453125 0 L 11.21875 -3.375 L 4.796875 -3.375 L 3.546875 0 L -0.578125 0 L 6.234375 -16.84375 Z M 9.90625 -6.734375 L 8.03125 -11.640625 L 7.984375 -11.640625 L 6.109375 -6.734375 Z M 9.90625 -6.734375 "/></g></g></g><g fill="#2b5289" fill-opacity="1"><g transform="translate(227.34399, 218.768424)"><g/></g></g><g fill="#2b5289" fill-opacity="1"><g transform="translate(234.428311, 218.768424)"><g><path d="M 10.96875 -16.84375 L 10.96875 -13.484375 L 5.0625 -13.484375 L 5.0625 -10.125 L 10.515625 -10.125 L 10.515625 -6.765625 L 5.0625 -6.765625 L 5.0625 0 L 1.21875 0 L 1.21875 -16.84375 Z M 10.96875 -16.84375 "/></g></g></g><g fill="#2b5289" fill-opacity="1"><g transform="translate(247.514383, 218.768424)"><g><path d="M 10.859375 -16.84375 L 10.859375 -13.484375 L 5.0625 -13.484375 L 5.0625 -10.125 L 10.625 -10.125 L 10.625 -6.765625 L 5.0625 -6.765625 L 5.0625 -3.375 L 10.859375 -3.375 L 10.859375 0 L 1.21875 0 L 1.21875 -16.84375 Z M 10.859375 -16.84375 "/></g></g></g><g fill="#2b5289" fill-opacity="1"><g transform="translate(145.031186, 193.783502)"><g><path d="M 8.046875 0 L -0.703125 -20.875 L 4.65625 -20.875 L 9.921875 -7.15625 L 15.171875 -20.875 L 20.546875 -20.875 L 11.78125 0 Z M 8.046875 0 "/></g></g></g><g fill="#2b5289" fill-opacity="1"><g transform="translate(166.730802, 193.783502)"><g><path d="M 13.453125 -20.875 L 13.453125 -16.703125 L 6.28125 -16.703125 L 6.28125 -12.546875 L 13.15625 -12.546875 L 13.15625 -8.375 L 6.28125 -8.375 L 6.28125 -4.171875 L 13.453125 -4.171875 L 13.453125 0 L 1.515625 0 L 1.515625 -20.875 Z M 13.453125 -20.875 "/></g></g></g><g fill="#2b5289" fill-opacity="1"><g transform="translate(183.271074, 193.783502)"><g><path d="M 0.203125 -16.703125 L 0.203125 -20.875 L 14.875 -20.875 L 14.875 -16.703125 L 9.921875 -16.703125 L 9.921875 0 L 5.15625 0 L 5.15625 -16.703125 Z M 0.203125 -16.703125 "/></g></g></g><g fill="#2b5289" fill-opacity="1"><g transform="translate(200.216001, 193.783502)"><g><path d="M 13.453125 -20.875 L 13.453125 -16.703125 L 6.28125 -16.703125 L 6.28125 -12.546875 L 13.15625 -12.546875 L 13.15625 -8.375 L 6.28125 -8.375 L 6.28125 -4.171875 L 13.453125 -4.171875 L 13.453125 0 L 1.515625 0 L 1.515625 -20.875 Z M 13.453125 -20.875 "/></g></g></g><g fill="#2b5289" fill-opacity="1"><g transform="translate(216.756272, 193.783502)"><g><path d="M 1.515625 -20.875 L 8.984375 -20.875 C 10.984375 -20.875 12.613281 -20.335938 13.875 -19.265625 C 15.144531 -18.191406 15.78125 -16.660156 15.78125 -14.671875 C 15.78125 -13.140625 15.394531 -11.851562 14.625 -10.8125 C 13.863281 -9.78125 12.828125 -9.050781 11.515625 -8.625 L 18.6875 0 L 12.65625 0 L 6.28125 -8.25 L 6.28125 0 L 1.515625 0 Z M 6.28125 -11.609375 L 6.828125 -11.609375 C 7.265625 -11.609375 7.632812 -11.613281 7.9375 -11.625 C 8.25 -11.644531 8.597656 -11.707031 8.984375 -11.8125 C 9.367188 -11.914062 9.675781 -12.054688 9.90625 -12.234375 C 10.144531 -12.421875 10.347656 -12.691406 10.515625 -13.046875 C 10.691406 -13.398438 10.78125 -13.832031 10.78125 -14.34375 C 10.78125 -14.851562 10.691406 -15.285156 10.515625 -15.640625 C 10.347656 -15.992188 10.144531 -16.257812 9.90625 -16.4375 C 9.675781 -16.625 9.367188 -16.769531 8.984375 -16.875 C 8.597656 -16.976562 8.25 -17.035156 7.9375 -17.046875 C 7.632812 -17.066406 7.265625 -17.078125 6.828125 -17.078125 L 6.28125 -17.078125 Z M 6.28125 -11.609375 "/></g></g></g><g fill="#2b5289" fill-opacity="1"><g transform="translate(236.736096, 193.783502)"><g><path d="M 6.28125 -20.875 L 6.28125 0 L 1.515625 0 L 1.515625 -20.875 Z M 6.28125 -20.875 "/></g></g></g><g fill="#2b5289" fill-opacity="1"><g transform="translate(246.397232, 193.783502)"><g><path d="M 6.28125 -12.953125 L 6.28125 0 L 1.515625 0 L 1.515625 -20.875 L 6.28125 -20.875 L 14.578125 -7.921875 L 14.625 -7.921875 L 14.625 -20.875 L 19.375 -20.875 L 19.375 0 L 14.625 0 L 6.328125 -12.953125 Z M 6.28125 -12.953125 "/></g></g></g><g fill="#2b5289" fill-opacity="1"><g transform="translate(269.159055, 193.783502)"><g><path d="M 12.125 -20.875 L 20.546875 0 L 15.4375 0 L 13.890625 -4.171875 L 5.9375 -4.171875 L 4.40625 0 L -0.703125 0 L 7.71875 -20.875 Z M 12.265625 -8.34375 L 9.9375 -14.421875 L 9.890625 -14.421875 L 7.5625 -8.34375 Z M 12.265625 -8.34375 "/></g></g></g><g fill="#2b5289" fill-opacity="1"><g transform="translate(290.858671, 193.783502)"><g><path d="M 1.515625 -20.875 L 8.984375 -20.875 C 10.984375 -20.875 12.613281 -20.335938 13.875 -19.265625 C 15.144531 -18.191406 15.78125 -16.660156 15.78125 -14.671875 C 15.78125 -13.140625 15.394531 -11.851562 14.625 -10.8125 C 13.863281 -9.78125 12.828125 -9.050781 11.515625 -8.625 L 18.6875 0 L 12.65625 0 L 6.28125 -8.25 L 6.28125 0 L 1.515625 0 Z M 6.28125 -11.609375 L 6.828125 -11.609375 C 7.265625 -11.609375 7.632812 -11.613281 7.9375 -11.625 C 8.25 -11.644531 8.597656 -11.707031 8.984375 -11.8125 C 9.367188 -11.914062 9.675781 -12.054688 9.90625 -12.234375 C 10.144531 -12.421875 10.347656 -12.691406 10.515625 -13.046875 C 10.691406 -13.398438 10.78125 -13.832031 10.78125 -14.34375 C 10.78125 -14.851562 10.691406 -15.285156 10.515625 -15.640625 C 10.347656 -15.992188 10.144531 -16.257812 9.90625 -16.4375 C 9.675781 -16.625 9.367188 -16.769531 8.984375 -16.875 C 8.597656 -16.976562 8.25 -17.035156 7.9375 -17.046875 C 7.632812 -17.066406 7.265625 -17.078125 6.828125 -17.078125 L 6.28125 -17.078125 Z M 6.28125 -11.609375 "/></g></g></g><g fill="#2b5289" fill-opacity="1"><g transform="translate(310.838495, 193.783502)"><g><path d="M 6.28125 -20.875 L 6.28125 0 L 1.515625 0 L 1.515625 -20.875 Z M 6.28125 -20.875 "/></g></g></g><g fill="#2b5289" fill-opacity="1"><g transform="translate(320.499631, 193.783502)"><g><path d="M 12.125 -20.875 L 20.546875 0 L 15.4375 0 L 13.890625 -4.171875 L 5.9375 -4.171875 L 4.40625 0 L -0.703125 0 L 7.71875 -20.875 Z M 12.265625 -8.34375 L 9.9375 -14.421875 L 9.890625 -14.421875 L 7.5625 -8.34375 Z M 12.265625 -8.34375 "/></g></g></g><g fill="#2b5289" fill-opacity="1"><g transform="translate(342.199247, 193.783502)"><g><path d="M 9.203125 -21.25 C 10.335938 -21.25 11.441406 -21.082031 12.515625 -20.75 C 13.597656 -20.425781 14.398438 -20.101562 14.921875 -19.78125 L 15.6875 -19.28125 L 13.765625 -15.484375 C 13.609375 -15.585938 13.394531 -15.71875 13.125 -15.875 C 12.851562 -16.03125 12.347656 -16.242188 11.609375 -16.515625 C 10.867188 -16.785156 10.175781 -16.921875 9.53125 -16.921875 C 8.738281 -16.921875 8.128906 -16.75 7.703125 -16.40625 C 7.273438 -16.070312 7.0625 -15.617188 7.0625 -15.046875 C 7.0625 -14.765625 7.160156 -14.5 7.359375 -14.25 C 7.566406 -14.007812 7.910156 -13.75 8.390625 -13.46875 C 8.878906 -13.1875 9.3125 -12.960938 9.6875 -12.796875 C 10.0625 -12.628906 10.632812 -12.378906 11.40625 -12.046875 C 12.757812 -11.472656 13.910156 -10.691406 14.859375 -9.703125 C 15.816406 -8.710938 16.296875 -7.59375 16.296875 -6.34375 C 16.296875 -5.144531 16.078125 -4.097656 15.640625 -3.203125 C 15.210938 -2.316406 14.625 -1.617188 13.875 -1.109375 C 13.125 -0.609375 12.289062 -0.238281 11.375 0 C 10.46875 0.25 9.484375 0.375 8.421875 0.375 C 7.515625 0.375 6.617188 0.28125 5.734375 0.09375 C 4.859375 -0.0820312 4.125 -0.3125 3.53125 -0.59375 C 2.945312 -0.875 2.414062 -1.148438 1.9375 -1.421875 C 1.46875 -1.691406 1.125 -1.914062 0.90625 -2.09375 L 0.578125 -2.375 L 2.953125 -6.375 C 3.160156 -6.207031 3.441406 -5.992188 3.796875 -5.734375 C 4.148438 -5.472656 4.773438 -5.117188 5.671875 -4.671875 C 6.578125 -4.234375 7.375 -4.015625 8.0625 -4.015625 C 10.070312 -4.015625 11.078125 -4.703125 11.078125 -6.078125 C 11.078125 -6.359375 11.003906 -6.617188 10.859375 -6.859375 C 10.722656 -7.109375 10.472656 -7.351562 10.109375 -7.59375 C 9.742188 -7.84375 9.421875 -8.039062 9.140625 -8.1875 C 8.867188 -8.332031 8.414062 -8.550781 7.78125 -8.84375 C 7.144531 -9.132812 6.675781 -9.359375 6.375 -9.515625 C 5.113281 -10.140625 4.132812 -10.914062 3.4375 -11.84375 C 2.75 -12.78125 2.40625 -13.789062 2.40625 -14.875 C 2.40625 -16.75 3.09375 -18.28125 4.46875 -19.46875 C 5.851562 -20.65625 7.429688 -21.25 9.203125 -21.25 Z M 9.203125 -21.25 "/></g></g></g><g clip-path="url(#24e64bbb92)"><path fill="#2b5289" d="M 71.90625 241.816406 C 41.898438 241.816406 17.589844 217.339844 17.589844 187.5 C 17.589844 157.65625 41.898438 133.183594 71.90625 133.183594 C 101.914062 133.183594 126.222656 157.492188 126.222656 187.5 C 126.222656 217.507812 101.746094 241.816406 71.90625 241.816406 Z M 71.90625 136.535156 C 43.742188 136.535156 20.941406 159.335938 20.941406 187.5 C 20.941406 215.664062 43.742188 238.460938 71.90625 238.460938 C 100.070312 238.460938 122.867188 215.664062 122.867188 187.5 C 122.867188 159.335938 99.902344 136.535156 71.90625 136.535156 Z M 71.90625 136.535156 " fill-opacity="1" fill-rule="nonzero"/></g><g clip-path="url(#869c461302)"><path fill="#db1e26" d="M 69.609375 123.285156 C 69.210938 123.511719 68.730469 124.050781 68.53125 124.472656 C 68.359375 124.898438 67.339844 130.738281 66.234375 137.460938 C 63.796875 152.398438 63.171875 154.808594 60.367188 160.394531 C 55.941406 169.183594 47.410156 176.867188 38.167969 180.324219 C 34.539062 181.714844 31.109375 182.394531 20.476562 183.953125 C 14.324219 184.863281 9.277344 185.710938 8.796875 185.96875 C 6.78125 186.988281 6.839844 190.023438 8.878906 190.84375 C 9.304688 191.042969 14.777344 191.808594 21.015625 192.601562 C 32.867188 194.074219 35.21875 194.53125 39.441406 196.003906 C 49.59375 199.605469 58.15625 207.429688 62.832031 217.378906 C 65.269531 222.539062 65.46875 223.304688 68.191406 239.238281 L 70.117188 250.550781 L 71.027344 251.34375 C 71.507812 251.769531 72.246094 252.136719 72.640625 252.136719 C 73.71875 252.136719 74.910156 251.402344 75.25 250.523438 C 75.421875 250.097656 76.414062 244.34375 77.433594 237.765625 C 78.453125 231.214844 79.617188 224.667969 80.011719 223.21875 C 82.933594 212.277344 90.617188 202.582031 100.539062 197.308594 C 106.265625 194.273438 108.503906 193.679688 123.445312 191.183594 L 134.957031 189.285156 L 135.75 188.378906 C 136.175781 187.894531 136.542969 187.160156 136.542969 186.761719 C 136.542969 185.683594 135.808594 184.492188 134.929688 184.152344 C 134.503906 183.984375 129.285156 183.246094 123.363281 182.535156 C 109.101562 180.808594 106.292969 180.128906 100 176.867188 C 96.003906 174.769531 92.769531 172.300781 89.339844 168.730469 C 85.003906 164.25 81.855469 159.121094 79.898438 153.335938 C 79.191406 151.324219 75.957031 136.324219 74.144531 126.828125 C 73.71875 124.53125 73.320312 123.738281 72.441406 123.285156 C 71.449219 122.746094 70.570312 122.773438 69.609375 123.285156 Z M 72.527344 147.210938 C 74.285156 155.546875 76.269531 160.59375 80.070312 166.261719 C 87.074219 176.695312 97.761719 183.839844 110.320312 186.449219 L 113.410156 187.101562 L 110.886719 187.613281 C 97.023438 190.363281 84.40625 200 78 212.730469 C 75.675781 217.378906 74.117188 222.398438 73.179688 228.324219 C 72.925781 229.941406 72.699219 231.328125 72.640625 231.355469 C 72.585938 231.414062 72.386719 230.476562 72.214844 229.257812 C 70.683594 219.421875 67.113281 211.453125 61.019531 204.253906 C 56.199219 198.554688 49.054688 193.566406 41.683594 190.789062 C 39.214844 189.851562 33.320312 188.347656 32.101562 188.347656 C 30.910156 188.320312 31.644531 187.921875 33.347656 187.640625 C 35.585938 187.273438 41.199219 185.316406 44.148438 183.839844 C 49.140625 181.375 52.398438 178.992188 56.625 174.769531 C 64.957031 166.40625 68.730469 158.324219 70.800781 144.460938 C 70.996094 143.1875 71.222656 142.136719 71.308594 142.136719 C 71.394531 142.136719 71.960938 144.433594 72.527344 147.210938 Z M 72.527344 147.210938 " fill-opacity="1" fill-rule="nonzero"/></g><g clip-path="url(#64bbd4773d)"><path fill="#2b5289" d="M 70.972656 161.539062 C 70.8125 161.628906 70.617188 161.847656 70.539062 162.019531 C 70.46875 162.191406 70.058594 164.554688 69.609375 167.269531 C 68.625 173.308594 68.371094 174.28125 67.238281 176.539062 C 65.449219 180.09375 62 183.199219 58.265625 184.597656 C 56.796875 185.15625 55.410156 185.433594 51.113281 186.0625 C 48.625 186.429688 46.585938 186.773438 46.390625 186.875 C 45.578125 187.289062 45.601562 188.515625 46.425781 188.847656 C 46.597656 188.929688 48.808594 189.238281 51.332031 189.558594 C 56.121094 190.15625 57.074219 190.335938 58.78125 190.933594 C 62.882812 192.390625 66.34375 195.550781 68.234375 199.574219 C 69.21875 201.660156 69.300781 201.96875 70.402344 208.410156 L 71.179688 212.984375 L 71.546875 213.304688 C 71.742188 213.476562 72.039062 213.625 72.199219 213.625 C 72.636719 213.625 73.117188 213.328125 73.253906 212.972656 C 73.324219 212.800781 73.722656 210.472656 74.136719 207.8125 C 74.550781 205.167969 75.019531 202.519531 75.179688 201.933594 C 76.359375 197.511719 79.464844 193.59375 83.476562 191.460938 C 85.792969 190.234375 86.695312 189.992188 92.734375 188.984375 L 97.390625 188.21875 L 97.710938 187.851562 C 97.882812 187.65625 98.03125 187.359375 98.03125 187.199219 C 98.03125 186.761719 97.734375 186.28125 97.378906 186.144531 C 97.207031 186.074219 95.097656 185.777344 92.703125 185.492188 C 86.9375 184.792969 85.804688 184.515625 83.257812 183.199219 C 81.644531 182.351562 80.335938 181.351562 78.949219 179.910156 C 77.195312 178.097656 75.925781 176.023438 75.132812 173.6875 C 74.847656 172.871094 73.539062 166.808594 72.808594 162.972656 C 72.636719 162.042969 72.476562 161.722656 72.121094 161.539062 C 71.71875 161.320312 71.363281 161.332031 70.972656 161.539062 Z M 72.152344 171.210938 C 72.863281 174.582031 73.667969 176.621094 75.203125 178.914062 C 78.03125 183.128906 82.351562 186.015625 87.429688 187.070312 L 88.679688 187.335938 L 87.660156 187.542969 C 82.054688 188.652344 76.957031 192.550781 74.367188 197.695312 C 73.425781 199.574219 72.796875 201.601562 72.417969 204 C 72.316406 204.652344 72.222656 205.210938 72.199219 205.222656 C 72.175781 205.246094 72.097656 204.867188 72.027344 204.375 C 71.410156 200.398438 69.964844 197.179688 67.5 194.269531 C 65.554688 191.964844 62.664062 189.949219 59.6875 188.824219 C 58.6875 188.445312 56.304688 187.839844 55.8125 187.839844 C 55.332031 187.828125 55.628906 187.667969 56.316406 187.554688 C 57.222656 187.402344 59.492188 186.613281 60.683594 186.015625 C 62.699219 185.019531 64.015625 184.058594 65.726562 182.351562 C 69.09375 178.96875 70.617188 175.703125 71.453125 170.097656 C 71.535156 169.582031 71.625 169.160156 71.660156 169.160156 C 71.695312 169.160156 71.925781 170.089844 72.152344 171.210938 Z M 72.152344 171.210938 " fill-opacity="1" fill-rule="nonzero"/></g><g clip-path="url(#429c903062)"><g clip-path="url(#89f2df2019)"><path fill="#2b5289" d="M 66.425781 180.992188 L 75.257812 180.992188 L 75.257812 190.414062 L 66.425781 190.414062 Z M 66.425781 180.992188 " fill-opacity="1" fill-rule="nonzero"/></g></g><g clip-path="url(#69c3a6703f)"><g clip-path="url(#e47c145a77)"><path fill="#2b5289" d="M 66.277344 169.894531 L 78.03125 169.894531 L 78.03125 208.738281 L 66.277344 208.738281 Z M 66.277344 169.894531 " fill-opacity="1" fill-rule="nonzero"/></g></g><g clip-path="url(#9656df2239)"><g clip-path="url(#41cac3b519)"><path fill="#2b5289" d="M 68.90625 183.183594 L 89.597656 183.183594 L 89.597656 203.480469 L 68.90625 203.480469 Z M 68.90625 183.183594 " fill-opacity="1" fill-rule="nonzero"/></g></g><g clip-path="url(#0c1954e237)"><g clip-path="url(#0aed6bbbf4)"><path fill="#2b5289" d="M 83.144531 183.328125 L 91.695312 183.328125 L 91.695312 191.652344 L 83.144531 191.652344 Z M 83.144531 183.328125 " fill-opacity="1" fill-rule="nonzero"/></g></g><g clip-path="url(#3130cce539)"><g clip-path="url(#20e12d208c)"><path fill="#2b5289" d="M 84.3125 183.183594 L 92.863281 183.183594 L 92.863281 191.507812 L 84.3125 191.507812 Z M 84.3125 183.183594 " fill-opacity="1" fill-rule="nonzero"/></g></g><g clip-path="url(#5e2f0a79d2)"><g clip-path="url(#6f184aa34a)"><path fill="#2b5289" d="M 56.347656 179.53125 L 86.058594 179.53125 L 86.058594 199.390625 L 56.347656 199.390625 Z M 56.347656 179.53125 " fill-opacity="1" fill-rule="nonzero"/></g></g><g clip-path="url(#5b3ed664c8)"><g clip-path="url(#30d0f650f2)"><path fill="#2b5289" d="M 51.894531 183.621094 L 60.445312 183.621094 L 60.445312 191.945312 L 51.894531 191.945312 Z M 51.894531 183.621094 " fill-opacity="1" fill-rule="nonzero"/></g></g><g clip-path="url(#f5650e62cf)"><g clip-path="url(#ddb8f8aa3e)"><path fill="#2b5289" d="M 53.355469 183.765625 L 61.90625 183.765625 L 61.90625 192.089844 L 53.355469 192.089844 Z M 53.355469 183.765625 " fill-opacity="1" fill-rule="nonzero"/></g></g><g clip-path="url(#cb5170b800)"><g clip-path="url(#195c33a859)"><path fill="#2b5289" d="M 54.230469 183.621094 L 62.78125 183.621094 L 62.78125 191.945312 L 54.230469 191.945312 Z M 54.230469 183.621094 " fill-opacity="1" fill-rule="nonzero"/></g></g><g clip-path="url(#c345b238f3)"><g clip-path="url(#f40ff4aa37)"><path fill="#2b5289" d="M 55.546875 183.621094 L 64.097656 183.621094 L 64.097656 191.945312 L 55.546875 191.945312 Z M 55.546875 183.621094 " fill-opacity="1" fill-rule="nonzero"/></g></g><g clip-path="url(#3d79766805)"><g clip-path="url(#2f48127bb0)"><path fill="#2b5289" d="M 55.398438 183.765625 L 63.949219 183.765625 L 63.949219 192.089844 L 55.398438 192.089844 Z M 55.398438 183.765625 " fill-opacity="1" fill-rule="nonzero"/></g></g><g clip-path="url(#5f2e7d1b76)"><g clip-path="url(#6564c92842)"><path fill="#2b5289" d="M 57.296875 183.765625 L 65.847656 183.765625 L 65.847656 192.089844 L 57.296875 192.089844 Z M 57.296875 183.765625 " fill-opacity="1" fill-rule="nonzero"/></g></g><g clip-path="url(#f4f7e0fde4)"><g clip-path="url(#2e62ef1416)"><path fill="#2b5289" d="M 54.960938 183.914062 L 63.578125 183.914062 L 63.578125 192.664062 L 54.960938 192.664062 Z M 54.960938 183.914062 " fill-opacity="1" fill-rule="nonzero"/></g></g><g clip-path="url(#ad894c0929)"><g clip-path="url(#2910453425)"><path fill="#2b5289" d="M 55.253906 172.890625 L 75.332031 172.890625 L 75.332031 201.984375 L 55.253906 201.984375 Z M 55.253906 172.890625 " fill-opacity="1" fill-rule="nonzero"/></g></g><g clip-path="url(#8e2e812382)"><g clip-path="url(#f9d67622d0)"><path fill="#2b5289" d="M 67.300781 165.371094 L 76.132812 165.371094 L 76.132812 174.339844 L 67.300781 174.339844 Z M 67.300781 165.371094 " fill-opacity="1" fill-rule="nonzero"/></g></g><g clip-path="url(#1c1b3517b5)"><g clip-path="url(#1df4eca809)"><path fill="#2b5289" d="M 67.519531 167.121094 L 76.070312 167.121094 L 76.070312 175.445312 L 67.519531 175.445312 Z M 67.519531 167.121094 " fill-opacity="1" fill-rule="nonzero"/></g></g><g clip-path="url(#d1b01a5b38)"><g clip-path="url(#6cd4898bd3)"><path fill="#2b5289" d="M 67.300781 167.265625 L 76.132812 167.265625 L 76.132812 176.101562 L 67.300781 176.101562 Z M 67.300781 167.265625 " fill-opacity="1" fill-rule="nonzero"/></g></g><g clip-path="url(#97b9bef36c)"><g clip-path="url(#06932bef44)"><path fill="#2b5289" d="M 67.300781 168.289062 L 76.132812 168.289062 L 76.132812 177.125 L 67.300781 177.125 Z M 67.300781 168.289062 " fill-opacity="1" fill-rule="nonzero"/></g></g><g clip-path="url(#0587fae667)"><g clip-path="url(#dfeca0ff6b)"><path fill="#2b5289" d="M 67.664062 169.164062 L 76.214844 169.164062 L 76.214844 177.488281 L 67.664062 177.488281 Z M 67.664062 169.164062 " fill-opacity="1" fill-rule="nonzero"/></g></g><g clip-path="url(#947e7908c9)"><g clip-path="url(#e5caa6eb4d)"><path fill="#2b5289" d="M 67.738281 169.457031 L 87.160156 169.457031 L 87.160156 190.851562 L 67.738281 190.851562 Z M 67.738281 169.457031 " fill-opacity="1" fill-rule="nonzero"/></g></g><g clip-path="url(#a63282851e)"><g clip-path="url(#1c29740347)"><path fill="#2b5289" d="M 71.535156 179.242188 L 80.367188 179.242188 L 80.367188 188.074219 L 71.535156 188.074219 Z M 71.535156 179.242188 " fill-opacity="1" fill-rule="nonzero"/></g></g><g clip-path="url(#662a842429)"><g clip-path="url(#a1a55ae683)"><path fill="#2b5289" d="M 64.964844 181.140625 L 83.867188 181.140625 L 83.867188 195.082031 L 64.964844 195.082031 Z M 64.964844 181.140625 " fill-opacity="1" fill-rule="nonzero"/></g></g></svg>